<svg version="1.1" id="Social_1_" xmlns="http://www.w3.org/2000/svg" xmlns:xlink="http://www.w3.org/1999/xlink" x="0px" y="0px"
	 width="19.998px" height="20px" viewBox="0 0 19.998 20" enable-background="new 0 0 19.998 20" xml:space="preserve">
	<g id="Twitter_1_">
		<g id="Shape_2">
			<g>
				<path fill="#edc139" d="M18.996,4.304c-0.662,0.3-1.373,0.503-2.119,0.594c0.763-0.467,1.347-1.205,1.622-2.083
					c-0.715,0.432-1.504,0.744-2.346,0.914C15.479,2.997,14.521,2.54,13.46,2.54c-2.039,0-3.692,1.687-3.692,3.767
					c0,0.295,0.033,0.584,0.096,0.859C6.796,7.007,4.076,5.507,2.256,3.228c-0.318,0.556-0.5,1.202-0.5,1.894
					c0,1.308,0.652,2.462,1.642,3.137c-0.604-0.021-1.174-0.19-1.672-0.474v0.048c0,1.825,1.272,3.349,2.961,3.694
					c-0.31,0.086-0.636,0.133-0.973,0.133c-0.238,0-0.469-0.025-0.695-0.07c0.47,1.498,1.833,2.588,3.448,2.617
					c-1.263,1.01-2.855,1.611-4.584,1.611c-0.298,0-0.591-0.021-0.88-0.053c1.634,1.071,3.574,1.694,5.659,1.694
					c6.79,0,10.501-5.739,10.501-10.72l-0.014-0.49C17.875,5.723,18.502,5.06,18.996,4.304z"/>
			</g>
		</g>
	</g>
</svg>