<svg version="1.1" id="Layer_1" xmlns="http://www.w3.org/2000/svg" xmlns:xlink="http://www.w3.org/1999/xlink" x="0px" y="0px"
	 width="24px" height="24px" viewBox="-0.085 -0.052 24 24" enable-background="new -0.085 -0.052 24 24" xml:space="preserve">
	<path fill="#FFFFFF" d="M20.83,23.908H3.001c-1.639,0-2.972-1.342-2.972-2.99v-9.967c0-0.008,0.005-0.015,0.005-0.023
		c0.001-0.036,0.014-0.07,0.021-0.105c0.01-0.073,0.021-0.142,0.047-0.212c0.004-0.021,0.006-0.043,0.016-0.062
		c0.017-0.039,0.047-0.073,0.072-0.109c0.023-0.037,0.031-0.08,0.06-0.115c0.017-0.021,0.041-0.03,0.059-0.049
		c0.012-0.014,0.02-0.031,0.032-0.043c0.006-0.006,0.008-0.014,0.014-0.019l3.639-3.328V3.974c0-0.55,0.442-0.997,0.989-0.997h3.282
		l2.985-2.73c0.378-0.345,0.955-0.345,1.332,0l2.921,2.671c0.019,0.017,0.025,0.041,0.043,0.059h3.304c0.547,0,0.99,0.447,0.99,0.997
		v2.912l3.638,3.327c0.006,0.006,0.008,0.014,0.015,0.02c0.014,0.013,0.021,0.03,0.031,0.044c0.019,0.019,0.042,0.028,0.06,0.048
		c0.026,0.035,0.036,0.077,0.059,0.114c0.026,0.036,0.055,0.07,0.073,0.11c0.008,0.019,0.01,0.041,0.015,0.061
		c0.025,0.07,0.037,0.14,0.046,0.213c0.009,0.035,0.021,0.069,0.021,0.105c0.001,0.008,0.005,0.015,0.005,0.023v9.967
		C23.801,22.566,22.468,23.908,20.83,23.908z M20.257,21.915l-8.342-6.876l-8.341,6.876H20.257z M1.938,20.686l4.713-3.884
		l-4.713-3.825V20.686z M2.542,10.906l1.45,1.176V9.58L2.542,10.906z M11.915,2.332L11.21,2.977h1.411L11.915,2.332z M5.938,4.906
		v8.756l2.278,1.849l2.685-2.212c0.582-0.47,1.447-0.469,2.021-0.008l2.694,2.22l2.322-1.885V7.708c-0.101-0.243-0.1-0.514,0-0.759
		V4.906H5.938z M19.839,9.581v2.501l1.449-1.176L19.839,9.581z M21.938,12.939l-4.758,3.862l4.758,3.923V12.939z"/>
</svg>