<svg version="1.1" id="Layer_1" xmlns="http://www.w3.org/2000/svg" xmlns:xlink="http://www.w3.org/1999/xlink" x="0px" y="0px"
	 width="11.817px" height="11.817px" viewBox="0 0 11.817 11.817" enable-background="new 0 0 11.817 11.817" xml:space="preserve">
	<path fill="#FFFFFF" d="M9.52,3.283c-0.544,0-0.985-0.441-0.985-0.985c0-0.272,0.11-0.518,0.289-0.696L7.222,0L0,7.222l1.602,1.602
		C1.78,8.645,2.026,8.535,2.298,8.535c0.544,0,0.985,0.441,0.985,0.985c0,0.271-0.11,0.518-0.289,0.696l1.602,1.601l7.221-7.221
		l-1.601-1.602C10.038,3.172,9.792,3.283,9.52,3.283z M9.055,5.965l-0.44-0.441L8.15,5.988l0.441,0.441l-3.996,3.995L4.201,10.03
		c0.043-0.164,0.066-0.336,0.066-0.511c0-1.086-0.884-1.969-1.97-1.969c-0.175,0-0.346,0.022-0.511,0.066L1.393,7.222l3.996-3.996
		l0.441,0.441l0.464-0.464L5.853,2.762l1.37-1.37l0.395,0.395C7.573,1.952,7.55,2.123,7.55,2.298c0,1.086,0.883,1.97,1.97,1.97
		c0.174,0,0.346-0.023,0.51-0.066l0.395,0.395L9.055,5.965z"/>
	<rect x="7.358" y="4.732" transform="matrix(0.7071 0.7071 -0.7071 0.7071 5.829 -3.9529)" fill="#FFFFFF" width="0.656" height="0.656"/>
	<rect x="6.43" y="3.803" transform="matrix(-0.7071 0.7071 -0.7071 -0.7071 14.4576 2.2742)" fill="#FFFFFF" width="0.656" height="0.657"/>
</svg>